<svg xmlns="http://www.w3.org/2000/svg" width="332" height="42" fill="none">
<path fill="#A7F860" d="M37.16 6.59v28.5h-7.11v-18.5l-11 11.38h-.91L7.06 16.48v18.61H0V6.59h7.23l11.36 12 11.37-12h7.2ZM56.09 35.88a14.76 14.76 0 0 1-15-15 14.42 14.42 0 0 1 4.32-10.64 15.11 15.11 0 1 1 10.7 25.66l-.02-.02Zm0-7.17a7.46 7.46 0 0 0 5.52-2.22 8.26 8.26 0 0 0 0-11.27 8 8 0 0 0-11 0 8.43 8.43 0 0 0 0 11.27 7.46 7.46 0 0 0 5.48 2.22ZM93.09 6.59h8.08l-10.78 28.5h-8.36L71.17 6.59h8.09l6.88 19.92 6.95-19.92ZM108.85 23.87c1 3.59 3.64 5.35 8 5.35a7.56 7.56 0 0 0 6.38-2.84l5.92 3.41c-2.8 4-7 6.09-12.41 6.09-4.72 0-8.48-1.42-11.32-4.27a14.57 14.57 0 0 1-4.27-10.75 14.71 14.71 0 0 1 9.16-14c1.86-.76 3.86-1.1 5.86-1.03a13.41 13.41 0 0 1 10.3 4.33 14.93 14.93 0 0 1 4.1 10.7c-.01 1-.1 2-.28 3l-21.44.01Zm14.4-5.69a6.89 6.89 0 0 0-7.06-5.75c-3.92 0-6.6 2.11-7.45 5.75h14.51ZM184.04 23.87c1 3.59 3.64 5.35 8 5.35a7.56 7.56 0 0 0 6.38-2.84l5.92 3.41c-2.79 4-6.95 6.09-12.41 6.09-4.72 0-8.48-1.42-11.33-4.27a15.7 15.7 0 0 1-.05-21.45 14.37 14.37 0 0 1 10.81-4.33 13.41 13.41 0 0 1 10.3 4.33 15 15 0 0 1 4.1 10.7c-.01 1-.1 2-.28 3l-21.44.01Zm14.4-5.69a6.89 6.89 0 0 0-7.06-5.75c-3.93 0-6.6 2.11-7.45 5.75h14.51ZM228.53 22.79V6.59h7.17v28.5h-5.47l-13.37-16.17v16.17h-7.17V6.59h5.46l13.38 16.2ZM264.82 6.59v7.06h-8.88v21.4h-7.34V13.69h-9v-7.1h25.22ZM168.63 2.72l-14.94 16.86-7.74-9.8h-7.53l-7.83 29.2h7.84l5.72-21.32 5.61 7.1h7.41l7.79-8.8-4.27 15.98h7.84l7.83-29.22h-7.73ZM329.15 9.5a1.14 1.14 0 0 0-.73-1.1c-.14-.06-.3-.1-.45-.09h-1.42v3.56h.7V10.6h.53l.72 1.24h.75l-.78-1.35a1.14 1.14 0 0 0 .68-.99Zm-1.18.52h-.72V8.96h.72a.53.53 0 0 1 0 1.06Z"></path>
<path fill="#A7F860" d="M327.74 6.53a3.63 3.63 0 1 0 0 7.26 3.63 3.63 0 0 0 0-7.26Zm0 6.54a2.92 2.92 0 1 1 0-5.84 2.92 2.92 0 0 1 0 5.84ZM299.39 0a20.86 20.86 0 1 0 0 41.73 20.86 20.86 0 0 0 0-41.73Zm0 36.5a15.65 15.65 0 1 1-.02-31.3 15.65 15.65 0 0 1 .02 31.3Z"></path>
<path fill="#A7F860" d="M298.67 22.89v4.42a3.68 3.68 0 0 1-3.66 3.85 3.66 3.66 0 0 1-3.65-3.85 3.6 3.6 0 0 1 1-2.45 3.66 3.66 0 1 1 1-6.74l3.83 2.2c-.06.32-.06.65 0 .96l-2.4.68-.71 1.89 2 .32 1.79-1.73c.24.2.5.35.8.45ZM308.99 24.44c-.79.45-1.72.6-2.61.4.63.66.99 1.54 1 2.45a3.68 3.68 0 0 1-3.66 3.85 3.66 3.66 0 0 1-3.65-3.85v-4.4c.3-.1.58-.26.82-.47l1.79 1.73 2-.32-.71-1.89-2.4-.68c.07-.31.07-.64 0-.95l3.83-2.21a3.65 3.65 0 1 1 3.64 6.34h-.05ZM304.67 16.92l-3.83 2.21a2.23 2.23 0 0 0-.82-.47l.61-2.42-1.28-1.56-1.28 1.56.61 2.42c-.3.1-.58.26-.82.47l-3.83-2.21a3.66 3.66 0 1 1 5.32-4.26 3.66 3.66 0 1 1 5.32 4.26Z"></path>
</svg>